<svg xmlns="http://www.w3.org/2000/svg" viewBox="0 0 70 100" fill="#000000">
  <path d="M35 0 C30 0 21 12 19 24 C17 32 20 40 26 43 C29 44 33 43 35 40 C37 43 41 44 44 43 C50 40 53 32 51 24 C49 12 40 0 35 0Z"/>
  <path d="M35 0 C32 5 27 14 28 24 C29 29 32 34 35 37 C38 34 41 29 42 24 C43 14 38 5 35 0Z"/>
  <path d="M27 7 C24 12 23 19 24 26 C25 30 28 34 30 36 L35 35 C33 33 30 29 29 24 C27 14 29 9 32 6Z"/>
  <path d="M43 7 C46 12 47 19 46 26 C45 30 42 34 40 36 L35 35 C37 33 40 29 41 24 C43 14 41 9 38 6Z"/>
  <path d="M35 37 C34 44 31 56 29 68 C28 73 27 78 28 82" stroke="#000000" stroke-width="2" fill="none" stroke-linecap="round"/>
  <path d="M29 68 C24 63 15 61 8 64 C5 66 6 71 10 72 C16 74 24 73 29 68Z"/>
  <path d="M29 73 C33 78 38 85 43 89 C45 91 50 90 49 86 C47 81 39 76 29 73Z"/>
</svg>
